# xmcd
#
# Track frame offsets:
#	150
#	16183
#	26785
#	47722
#	65441
#	80308
#	98925
#	112062
#	123617
#	132950
#	165855
#	177394
#
# Disc length: 2549
#
# Revision: 4
# Processed by: cddbd v1.5.1PL0 Copyright (c) Steve Scherf et al.
# Submitted via: Jack 2.99.9
# Normalized: r3:DSETVAR2
#
DISCID=9b09f30c
DTITLE=Various Artist - Blues Anthology - CD 2
DYEAR=1998
DGENRE=Blues
TTITLE0=Lightnin' Slim - My Babe
TTITLE1=Jimmy Reed - Baby What You Want Me to Do
TTITLE2=Brownie McGhee and Sonny Terry - Blues For the Lowlands
TTITLE3=Etta James - Shake Yo Bottle
TTITLE4=Lightnin' Hopkins - Mojo Hand
TTITLE5=Mississippi John Hurt - Frankie and Albert
TTITLE6=Brownie McGhee and Sonny Terry - Walk On
TTITLE7=John Lee Hooker - Boogie Chillun
TTITLE8=Memphis Slim - Sassy Mae
TTITLE9=Joe Turner - Chains of Love
TTITLE10=Leadbelly - Goodnight Irene
TTITLE11=Sidney Bechet - Wabash Blues
EXTD=Disky - BX884742
EXTT0=
EXTT1=
EXTT2=
EXTT3=
EXTT4=
EXTT5=
EXTT6=
EXTT7=
EXTT8=
EXTT9=
EXTT10=
EXTT11=
PLAYORDER=
